<?xml version="1.0" standalone="no"?>
<!DOCTYPE svg PUBLIC "-//W3C//DTD SVG 20010904//EN"
 "http://www.w3.org/TR/2001/REC-SVG-20010904/DTD/svg10.dtd">
<svg version="1.0" xmlns="http://www.w3.org/2000/svg"
 width="700.000000pt" height="700.000000pt" viewBox="0 0 700.000000 700.000000"
 preserveAspectRatio="xMidYMid meet">
<metadata>
Created by potrace 1.14, written by Peter Selinger 2001-2017
</metadata>
<g transform="translate(0.000000,700.000000) scale(0.100000,-0.100000)"
fill="#000000" stroke="none">
<path d="M1085 6993 c-264 -32 -538 -166 -725 -354 -135 -136 -241 -309 -299
-489 -63 -194 -59 -21 -57 -2720 2 -2262 3 -2470 19 -2531 104 -414 378 -718
762 -842 169 -55 20 -52 2715 -52 2154 0 2515 2 2575 15 39 8 72 14 75 15 3 0
37 11 75 24 256 86 474 264 622 507 58 96 123 280 141 399 4 28 7 1173 7 2545
0 2011 -3 2508 -13 2560 -96 479 -468 842 -937 915 -75 12 -482 14 -2510 13
-1331 -1 -2433 -3 -2450 -5z m4938 -592 c131 -43 226 -111 298 -214 35 -50 95
-177 84 -177 -3 0 1 -12 7 -27 18 -44 18 -4840 0 -4948 -18 -110 -69 -211
-147 -290 -72 -73 -143 -115 -245 -146 l-75 -23 -2440 0 c-2264 1 -2445 2
-2505 18 -219 57 -368 215 -413 440 -10 48 -12 582 -12 2446 2 2631 -3 2434
62 2570 95 199 287 342 493 368 30 4 1128 7 2440 6 l2385 -1 68 -22z"/>
<path d="M2105 5070 c-2 -3 -3 -711 -3 -1575 l0 -1570 492 1 c270 1 497 2 504
3 9 1 12 144 12 681 0 447 3 680 10 680 6 0 10 -10 11 -22 4 -132 24 -186 122
-329 233 -340 415 -605 447 -649 19 -27 82 -118 140 -203 58 -86 112 -157 120
-159 8 -2 222 -4 475 -3 l460 0 3 1575 2 1575 -502 0 -503 0 -3 -675 c-1 -429
-6 -678 -12 -684 -7 -7 -10 0 -11 19 -1 36 -6 72 -20 141 -10 54 -1 40 -342
534 -97 140 -238 345 -313 455 -76 110 -139 202 -141 204 -5 7 -944 7 -948 1z"/>
</g>
</svg>
